<?xml version="1.0" encoding="UTF-8" standalone="no"?>
<!DOCTYPE svg PUBLIC "-//W3C//DTD SVG 1.1//EN" "http://www.w3.org/Graphics/SVG/1.1/DTD/svg11.dtd">
<!-- 由 Microsoft Visio, SVG Export 生成 logo.svg 页-1 -->
<svg xmlns="http://www.w3.org/2000/svg" xmlns:xlink="http://www.w3.org/1999/xlink" xmlns:ev="http://www.w3.org/2001/xml-events"
		xmlns:v="http://schemas.microsoft.com/visio/2003/SVGExtensions/" width="1.25856in" height="1.25597in"
		viewBox="0 0 90.6161 90.4297" xml:space="preserve" color-interpolation-filters="sRGB" class="st7">
	<v:documentProperties v:langID="2052" v:metric="true" v:viewMarkup="false"/>

	<style type="text/css">
	<![CDATA[
		.st1 {stroke:#000000;stroke-linecap:butt;stroke-width:3}
		.st2 {fill:#6599ed;stroke:#000000;stroke-linecap:round;stroke-linejoin:round;stroke-width:3}
		.st3 {fill:#8360f4;stroke:#000000;stroke-linecap:round;stroke-linejoin:round;stroke-width:3}
		.st4 {fill:#f6db40;stroke:#000000;stroke-linecap:round;stroke-linejoin:round;stroke-width:3}
		.st5 {fill:#db535b;stroke:#000000;stroke-linecap:round;stroke-linejoin:round;stroke-width:3}
		.st6 {fill:#71d2df;stroke:#000000;stroke-linecap:round;stroke-linejoin:round;stroke-width:3}
		.st7 {fill:none;fill-rule:evenodd;font-size:12px;overflow:visible;stroke-linecap:square;stroke-miterlimit:3}
	]]>
	</style>

	<g v:mID="0" v:index="1" v:groupContext="foregroundPage">
		<title>页-1</title>
		<v:pageProperties v:drawingScale="0.0393701" v:pageScale="0.0393701" v:drawingUnits="24" v:shadowOffsetX="8.50394"
				v:shadowOffsetY="-8.50394"/>
		<g id="shape778-1" v:mID="778" v:groupContext="shape" transform="translate(74.0979,97.887) rotate(159.648)">
			<title>工作表.778</title>
			<path d="M0 90.43 L27.06 90.43" class="st1"/>
		</g>
		<g id="shape779-4" v:mID="779" v:groupContext="shape" transform="translate(14.6199,109.164) rotate(-134.976)">
			<title>工作表.779</title>
			<path d="M0 90.43 L46.84 90.43" class="st1"/>
		</g>
		<g id="shape780-7" v:mID="780" v:groupContext="shape" transform="translate(51.1858,-57.2755) rotate(25.3574)">
			<title>工作表.780</title>
			<path d="M0 90.43 L35.94 90.43" class="st1"/>
		</g>
		<g id="shape781-10" v:mID="781" v:groupContext="shape" transform="translate(55.8373,-49.1754) rotate(6.90123)">
			<title>工作表.781</title>
			<path d="M0 90.43 L34.21 90.43" class="st1"/>
		</g>
		<g id="shape782-13" v:mID="782" v:groupContext="shape" transform="translate(122.208,59.0055) rotate(122.293)">
			<title>工作表.782</title>
			<path d="M0 90.43 L62.87 90.43" class="st1"/>
		</g>
		<g id="shape783-16" v:mID="783" v:groupContext="shape" transform="translate(136.16,40.984) rotate(90.6032)">
			<title>工作表.783</title>
			<path d="M0 90.43 L40.25 90.43" class="st1"/>
		</g>
		<g id="shape784-19" v:mID="784" v:groupContext="shape" transform="translate(144.814,105.769) rotate(133.096)">
			<title>工作表.784</title>
			<path d="M0 90.43 L48.74 90.43" class="st1"/>
		</g>
		<g id="shape785-22" v:mID="785" v:groupContext="shape" transform="translate(90.2516,-22.7143) rotate(59.6162)">
			<title>工作表.785</title>
			<path d="M0 90.43 L65.72 90.43" class="st1"/>
		</g>
		<g id="shape786-25" v:mID="786" v:groupContext="shape" transform="translate(53.5871,-17.5446) rotate(27.4428)">
			<title>工作表.786</title>
			<path d="M0 90.43 L37.83 90.43" class="st1"/>
		</g>
		<g id="shape772-28" v:mID="772" v:groupContext="shape" transform="translate(1.88896,-55.5607)">
			<title>圆形</title>
			<v:userDefs>
				<v:ud v:nameU="visVersion" v:val="VT0(15):26"/>
			</v:userDefs>
			<path d="M0 79.78 A10.6502 10.6502 0 0 1 21.3 79.78 A10.6502 10.6502 0 1 1 0 79.78 Z" class="st2"/>
		</g>
		<g id="shape773-30" v:mID="773" v:groupContext="shape" transform="translate(34.6206,-67.6293)">
			<title>圆形.773</title>
			<v:userDefs>
				<v:ud v:nameU="visVersion" v:val="VT0(15):26"/>
			</v:userDefs>
			<path d="M0 79.78 A10.6502 10.6502 0 0 1 21.3 79.78 A10.6502 10.6502 0 1 1 0 79.78 Z" class="st3"/>
		</g>
		<g id="shape774-32" v:mID="774" v:groupContext="shape" transform="translate(1.5,-16.2327)">
			<title>圆形.774</title>
			<v:userDefs>
				<v:ud v:nameU="visVersion" v:val="VT0(15):26"/>
			</v:userDefs>
			<path d="M0 79.78 A10.6502 10.6502 0 0 1 21.3 79.78 A10.6502 10.6502 0 1 1 0 79.78 Z" class="st4"/>
		</g>
		<g id="shape775-34" v:mID="775" v:groupContext="shape" transform="translate(67.8158,-34.5833)">
			<title>圆形.775</title>
			<v:userDefs>
				<v:ud v:nameU="visVersion" v:val="VT0(15):26"/>
			</v:userDefs>
			<path d="M0 79.78 A10.6502 10.6502 0 0 1 21.3 79.78 A10.6502 10.6502 0 1 1 0 79.78 Z" class="st4"/>
		</g>
		<g id="shape776-36" v:mID="776" v:groupContext="shape" transform="translate(34.8444,-39.1337)">
			<title>圆形.776</title>
			<v:userDefs>
				<v:ud v:nameU="visVersion" v:val="VT0(15):26"/>
			</v:userDefs>
			<path d="M0 79.78 A10.6502 10.6502 0 0 1 21.3 79.78 A10.6502 10.6502 0 1 1 0 79.78 Z" class="st5"/>
		</g>
		<g id="shape777-38" v:mID="777" v:groupContext="shape" transform="translate(34.6899,-1.5)">
			<title>圆形.777</title>
			<v:userDefs>
				<v:ud v:nameU="visVersion" v:val="VT0(15):26"/>
			</v:userDefs>
			<path d="M0 79.78 A10.6502 10.6502 0 0 1 21.3 79.78 A10.6502 10.6502 0 1 1 0 79.78 Z" class="st6"/>
		</g>
	</g>
</svg>
